<svg width="14" height="14" viewBox="0 0 14 14" fill="none" xmlns="http://www.w3.org/2000/svg">
<path fill-rule="evenodd" clip-rule="evenodd" d="M4.24219 1.52356C2.89599 1.52356 1.80469 2.61487 1.80469 3.96106V9.96106C1.80469 11.3073 2.89599 12.3986 4.24219 12.3986H10.2422C11.5884 12.3986 12.6797 11.3073 12.6797 9.96106V3.96106C12.6797 2.61487 11.5884 1.52356 10.2422 1.52356H4.24219ZM0.679688 3.96106C0.679688 1.99355 2.27467 0.39856 4.24219 0.39856H10.2422C12.2097 0.39856 13.8047 1.99355 13.8047 3.96106V9.96106C13.8047 11.9286 12.2097 13.5236 10.2422 13.5236H4.24219C2.27467 13.5236 0.679688 11.9286 0.679688 9.96106V3.96106ZM7.24219 5.27356C6.31021 5.27356 5.55469 6.02908 5.55469 6.96106C5.55469 7.89304 6.31021 8.64856 7.24219 8.64856C8.17417 8.64856 8.92969 7.89304 8.92969 6.96106C8.92969 6.02908 8.17417 5.27356 7.24219 5.27356ZM4.42969 6.96106C4.42969 5.40776 5.68889 4.14856 7.24219 4.14856C8.79549 4.14856 10.0547 5.40776 10.0547 6.96106C10.0547 8.51436 8.79549 9.77356 7.24219 9.77356C5.68889 9.77356 4.42969 8.51436 4.42969 6.96106ZM11.1797 3.58606C11.1797 3.2754 10.9278 3.02356 10.6172 3.02356C10.3065 3.02356 10.0547 3.2754 10.0547 3.58606V3.58706C10.0547 3.89772 10.3065 4.14956 10.6172 4.14956C10.9278 4.14956 11.1797 3.89772 11.1797 3.58706V3.58606Z" fill="#282828"/>
</svg>
