<svg width="17" height="14" viewBox="0 0 17 14" fill="none" xmlns="http://www.w3.org/2000/svg">
<path d="M16.2275 0.929507C15.4775 1.29701 14.7425 1.44626 13.9775 1.67201C13.1368 0.723257 11.8903 0.670757 10.6925 1.11926C9.49479 1.56776 8.71029 2.66426 8.72754 3.92201V4.67201C6.29379 4.73426 4.12629 3.62576 2.72754 1.67201C2.72754 1.67201 -0.408961 7.24676 5.72754 9.92201C4.32354 10.8573 2.92329 11.488 1.22754 11.422C3.70854 12.7743 6.41229 13.2393 8.75304 12.5598C11.438 11.7798 13.6445 9.76751 14.4913 6.75326C14.7439 5.83651 14.8693 4.8894 14.864 3.93851C14.8625 3.75176 15.9965 1.85951 16.2275 0.928757V0.929507Z" stroke="#282828" stroke-width="1.125" stroke-linecap="round" stroke-linejoin="round"/>
</svg>
